<?xml version="1.0" encoding="UTF-8"?>
<svg id="Capa_1" data-name="Capa 1" xmlns="http://www.w3.org/2000/svg" viewBox="0 0 354.07 89.72">
  <defs>
    <style>
      .cls-1 {
        fill: #ba0022;
      }

      .cls-2 {
        fill: #413f3f;
      }

      .cls-3 {
        fill: #d31323;
      }
    </style>
  </defs>
  <path class="cls-3" d="M29.79,0C13.34,0,0,13.34,0,29.79,0,53.16,21.13,65.1,29.79,89.72c8.66-24.62,29.79-36.56,29.79-59.93C59.57,13.34,46.24,0,29.79,0ZM35.22,51.3c-.29.07-.58.14-.87.2-.57,3.35-.69,7.15-.66,7.26,0,0,0,0,0,0-.07.04-3.33-2.52-5.14-5.57-.14-.23-.26-.45-.38-.67-8.91-.35-16.29-6.5-18.57-15.58-2.77-11.04,3.93-22.24,14.97-25.01s22.24,3.93,25.01,14.97c2.77,11.04-3.32,21.63-14.36,24.4Z"/>
  <g>
    <path class="cls-2" d="M23.05,33.88c-1.24.15-2.39-.95-2.57-2.46-.24-1.96.54-3.89,1.77-4.04,1.24-.15,2.48,1.67,2.7,3.49.19,1.51-.66,2.86-1.9,3.01Z"/>
    <path class="cls-2" d="M32.78,40.28c-1.76-.04-2.43-.82-3.56-.84-1.13-.02-1.83.73-3.59.7-2.3-.05-3.96-2.94-1.83-4.79,2.65-2.3,3.45-5.24,5.61-5.19,2.17.04,2.84,3.02,5.39,5.42,2.05,1.94.28,4.76-2.02,4.71Z"/>
    <path class="cls-2" d="M30.05,26.32c.19-1.82,1.41-3.67,2.64-3.53,1.24.13,2.05,2.05,1.84,4.01-.16,1.51-1.3,2.63-2.53,2.5-1.24-.13-2.11-1.47-1.95-2.98Z"/>
    <path class="cls-2" d="M24.42,26.59c-.13-1.97.76-3.85,2-3.93,1.24-.08,2.38,1.81,2.49,3.64.1,1.52-.83,2.82-2.07,2.9-1.24.08-2.33-1.09-2.43-2.61Z"/>
    <path class="cls-2" d="M35.61,34.14c-1.23-.2-2.02-1.59-1.77-3.09.3-1.81,1.62-3.58,2.84-3.37,1.23.2,1.93,2.16,1.6,4.11-.25,1.5-1.45,2.56-2.67,2.35Z"/>
  </g>
  <g>
    <path class="cls-2" d="M95.95,71.88c-.73,0-1.32-.2-1.75-.59-.44-.39-.74-.86-.93-1.41l-14.41-43.98c-.05-.23-.07-.43-.07-.62,0-.37.14-.7.41-.99s.62-.45,1.03-.45h7.21c.69,0,1.22.2,1.61.58.39.39.63.74.72,1.06l10.7,33.55,10.64-33.55c.14-.32.39-.68.75-1.06.37-.39.89-.58,1.58-.58h7.21c.41,0,.75.15,1.03.45s.41.63.41.99c0,.18-.02.39-.07.62l-14.41,43.98c-.14.55-.42,1.02-.86,1.41s-1.04.59-1.82.59h-8.99Z"/>
    <path class="cls-2" d="M136.02,72.57c-5.26,0-9.43-1.46-12.52-4.39-3.09-2.93-4.72-7.18-4.91-12.76v-2.95c.18-3.52.98-6.55,2.4-9.09,1.42-2.54,3.41-4.48,5.97-5.83,2.56-1.35,5.56-2.02,8.99-2.02,3.84,0,7.06.79,9.64,2.37,2.58,1.58,4.53,3.73,5.83,6.45,1.3,2.72,1.96,5.84,1.96,9.37v1.58c0,.46-.17.85-.51,1.17s-.74.48-1.2.48h-22.44v.55c.05,1.47.33,2.81.86,4.01.53,1.21,1.28,2.19,2.26,2.91.98.74,2.16,1.1,3.53,1.1,1.14,0,2.08-.16,2.81-.48.73-.32,1.34-.71,1.82-1.17.48-.46.83-.84,1.06-1.17.41-.46.74-.74.99-.86.25-.11.65-.17,1.2-.17h7.13c.46,0,.83.13,1.13.38.3.26.42.61.38,1.07-.05.73-.42,1.64-1.13,2.71s-1.75,2.12-3.12,3.15c-1.37,1.03-3.08,1.89-5.11,2.58-2.04.69-4.38,1.03-7.03,1.03ZM129.23,50.68h13.45v-.14c0-1.65-.27-3.08-.79-4.29-.53-1.21-1.29-2.16-2.3-2.85s-2.22-1.03-3.64-1.03-2.63.34-3.64,1.03c-1.01.69-1.77,1.64-2.3,2.85-.53,1.21-.79,2.64-.79,4.29v.14Z"/>
    <path class="cls-2" d="M171.7,72.57c-3.34,0-6.28-.62-8.82-1.85-2.54-1.23-4.54-3.03-6-5.39s-2.26-5.18-2.4-8.47c-.05-.73-.07-1.66-.07-2.78s.02-2.05.07-2.78c.14-3.34.93-6.19,2.37-8.54,1.44-2.35,3.44-4.15,6-5.39,2.56-1.23,5.51-1.85,8.85-1.85,3.06,0,5.67.42,7.82,1.27,2.15.85,3.91,1.91,5.28,3.19,1.37,1.28,2.39,2.62,3.05,4.01s1.02,2.62,1.06,3.67c.04.46-.1.86-.45,1.2-.35.34-.74.51-1.2.51h-7.34c-.46,0-.81-.12-1.06-.38-.25-.25-.49-.61-.72-1.06-.64-1.6-1.46-2.74-2.47-3.43s-2.26-1.03-3.77-1.03c-2.06,0-3.68.66-4.87,1.99-1.19,1.33-1.83,3.39-1.92,6.17-.05,1.78-.05,3.41,0,4.87.14,2.84.79,4.89,1.96,6.17,1.17,1.28,2.78,1.92,4.84,1.92,1.6,0,2.88-.34,3.84-1.03.96-.69,1.76-1.83,2.4-3.43.18-.46.41-.81.69-1.06.28-.25.64-.38,1.1-.38h7.34c.46,0,.86.17,1.2.52.34.34.49.74.45,1.2-.05.78-.26,1.69-.65,2.74-.39,1.05-1.01,2.13-1.85,3.22-.85,1.1-1.93,2.12-3.26,3.05-1.33.94-2.94,1.69-4.84,2.27-1.9.57-4.1.86-6.62.86Z"/>
    <path class="cls-2" d="M192.69,30.71c-.46,0-.85-.16-1.17-.48s-.48-.73-.48-1.24v-5.49c0-.5.16-.93.48-1.27s.71-.51,1.17-.51h7.21c.5,0,.93.17,1.27.51s.51.77.51,1.27v5.49c0,.5-.17.92-.51,1.24s-.77.48-1.27.48h-7.21ZM192.9,71.88c-.46,0-.85-.16-1.17-.48-.32-.32-.48-.73-.48-1.23v-32.25c0-.5.16-.92.48-1.24s.71-.48,1.17-.48h6.86c.5,0,.91.16,1.24.48.32.32.48.73.48,1.24v32.25c0,.5-.16.92-.48,1.23s-.73.48-1.24.48h-6.86Z"/>
    <path class="cls-2" d="M207.31,71.88c-.46,0-.85-.16-1.17-.48-.32-.32-.48-.73-.48-1.23v-32.25c0-.5.16-.92.48-1.24s.71-.48,1.17-.48h6.72c.5,0,.92.16,1.24.48s.48.73.48,1.24v2.67c1.19-1.46,2.72-2.67,4.6-3.64,1.88-.96,4.16-1.44,6.86-1.44s5.07.61,7.1,1.82c2.04,1.21,3.64,2.97,4.8,5.28,1.17,2.31,1.75,5.11,1.75,8.41v19.14c0,.5-.17.92-.51,1.23-.34.32-.74.48-1.2.48h-7.27c-.5,0-.92-.16-1.24-.48-.32-.32-.48-.73-.48-1.23v-18.73c0-2.42-.58-4.31-1.75-5.66-1.17-1.35-2.87-2.02-5.11-2.02s-3.87.68-5.15,2.02c-1.28,1.35-1.92,3.24-1.92,5.66v18.73c0,.5-.16.92-.48,1.23s-.71.48-1.17.48h-7.27Z"/>
    <path class="cls-1" d="M257.94,72.57c-2.29,0-4.32-.38-6.11-1.13-1.78-.75-3.29-1.85-4.53-3.29-1.24-1.44-2.17-3.16-2.81-5.15-.64-1.99-1.03-4.2-1.17-6.62-.05-.87-.07-1.66-.07-2.37s.02-1.47.07-2.3c.09-2.38.47-4.55,1.13-6.52.66-1.97,1.6-3.67,2.81-5.11,1.21-1.44,2.72-2.56,4.53-3.36s3.85-1.2,6.14-1.2,4.41.4,6.11,1.2c1.69.8,3.09,1.84,4.19,3.12v-14.96c0-.5.16-.91.48-1.23.32-.32.73-.48,1.23-.48h7.07c.46,0,.84.16,1.17.48.32.32.48.73.48,1.23v45.29c0,.5-.16.92-.48,1.23s-.71.48-1.17.48h-6.59c-.46,0-.85-.16-1.17-.48-.32-.32-.48-.73-.48-1.23v-2.33c-1.14,1.37-2.58,2.51-4.32,3.4s-3.91,1.34-6.52,1.34ZM261.1,64.33c1.69,0,3.06-.39,4.08-1.17s1.78-1.76,2.26-2.95c.48-1.19.74-2.47.79-3.84.09-.87.14-1.74.14-2.61s-.05-1.71-.14-2.54c-.05-1.28-.32-2.48-.82-3.6-.5-1.12-1.27-2.05-2.3-2.78s-2.37-1.1-4.01-1.1c-1.74,0-3.11.38-4.12,1.13-1.01.75-1.73,1.75-2.16,2.99-.43,1.23-.7,2.58-.79,4.05-.14,1.42-.14,2.84,0,4.25.09,1.46.35,2.81.79,4.05.43,1.23,1.15,2.23,2.16,2.98,1.01.76,2.38,1.13,4.12,1.13Z"/>
    <path class="cls-1" d="M299.32,72.57c-3.8,0-6.98-.63-9.54-1.89-2.56-1.26-4.52-3.05-5.87-5.39-1.35-2.33-2.09-5.06-2.23-8.17-.05-.91-.07-1.96-.07-3.12s.02-2.18.07-3.05c.14-3.16.91-5.89,2.33-8.2,1.42-2.31,3.41-4.09,5.97-5.35,2.56-1.26,5.67-1.89,9.33-1.89s6.7.63,9.26,1.89c2.56,1.26,4.55,3.04,5.97,5.35,1.42,2.31,2.2,5.04,2.33,8.2.09.87.14,1.89.14,3.05s-.05,2.21-.14,3.12c-.14,3.11-.88,5.83-2.23,8.17s-3.3,4.13-5.87,5.39c-2.56,1.25-5.72,1.89-9.47,1.89ZM299.32,65.02c2.24,0,3.93-.7,5.08-2.09,1.14-1.4,1.76-3.44,1.85-6.14.04-.69.07-1.6.07-2.74s-.02-2.06-.07-2.75c-.09-2.65-.71-4.69-1.85-6.11-1.14-1.42-2.84-2.13-5.08-2.13s-3.95.71-5.11,2.13-1.8,3.45-1.89,6.11c-.05.69-.07,1.6-.07,2.75s.02,2.06.07,2.74c.09,2.7.72,4.75,1.89,6.14,1.17,1.39,2.87,2.09,5.11,2.09Z"/>
    <path class="cls-1" d="M336.57,86.97c-3.39,0-6.2-.45-8.44-1.34-2.24-.89-4.01-1.97-5.32-3.22-1.3-1.26-2.23-2.51-2.78-3.74-.55-1.23-.85-2.2-.89-2.88-.05-.51.11-.92.48-1.23.37-.32.78-.48,1.23-.48h7.34c.41,0,.77.1,1.06.31.3.2.54.56.72,1.06.23.55.55,1.13.96,1.75.41.62,1.04,1.13,1.89,1.54.85.41,1.98.62,3.4.62,1.6,0,2.93-.23,3.98-.69,1.05-.46,1.84-1.23,2.37-2.33.52-1.1.79-2.58.79-4.46v-4.6c-1.1,1.19-2.48,2.17-4.15,2.95-1.67.78-3.72,1.17-6.14,1.17s-4.47-.38-6.28-1.13c-1.81-.75-3.31-1.83-4.5-3.22-1.19-1.39-2.1-3.07-2.74-5.04-.64-1.97-1.01-4.19-1.1-6.65-.05-1.23-.05-2.45,0-3.64.09-2.38.46-4.55,1.1-6.52.64-1.97,1.55-3.67,2.74-5.11s2.69-2.56,4.5-3.36c1.81-.8,3.9-1.2,6.28-1.2,2.52,0,4.67.48,6.45,1.44,1.79.96,3.25,2.15,4.39,3.57v-2.61c0-.46.16-.86.48-1.2s.71-.52,1.17-.52h6.72c.46,0,.86.17,1.2.52s.51.74.51,1.2l.07,33c0,3.43-.66,6.34-1.99,8.72-1.33,2.38-3.28,4.19-5.87,5.45-2.59,1.26-5.8,1.89-9.64,1.89ZM336.23,63.37c1.65,0,2.99-.38,4.01-1.13,1.03-.76,1.79-1.71,2.3-2.88.5-1.17.78-2.39.82-3.67.04-.5.07-1.22.07-2.16s-.03-1.66-.07-2.16c-.05-1.28-.32-2.51-.82-3.67-.5-1.17-1.27-2.12-2.3-2.85s-2.37-1.1-4.01-1.1c-1.74,0-3.11.38-4.12,1.13-1.01.75-1.74,1.75-2.2,2.99-.46,1.23-.73,2.58-.82,4.05-.05,1.1-.05,2.17,0,3.22.09,1.51.37,2.88.82,4.12.46,1.23,1.19,2.23,2.2,2.99,1.01.75,2.38,1.13,4.12,1.13Z"/>
  </g>
  <path class="cls-1" d="M28.55,53.2c-.14-.23-.26-.45-.38-.67-8.91-.35-16.29-6.5-18.57-15.58-2.77-11.04,3.93-22.24,14.97-25.01,1.75-.44,3.49-.61,5.21-.6V0C13.34,0,0,13.34,0,29.79c0,23.37,21.13,35.31,29.79,59.93v-34.77c-.44-.56-.87-1.14-1.24-1.75Z"/>
</svg>